<svg xmlns="http://www.w3.org/2000/svg" viewBox="0 0 107 107"><defs><style>.cls-1{fill:#fff;}</style></defs><title>c</title><g id="Layer_2" data-name="Layer 2"><g id="Layer_1-2" data-name="Layer 1"><path class="cls-1" d="M95,10a2,2,0,0,1,2,2V95a2,2,0,0,1-2,2H12a2,2,0,0,1-2-2V12a2,2,0,0,1,2-2H95M95,0H12A12,12,0,0,0,0,12V95a12,12,0,0,0,12,12H95a12,12,0,0,0,12-12V12A12,12,0,0,0,95,0Z"/><path class="cls-1" d="M72.68,62.29l8,2q-2.52,9.86-9.06,15a24.92,24.92,0,0,1-16,5.17q-9.76,0-15.9-4A24.83,24.83,0,0,1,30.42,69a41.16,41.16,0,0,1-3.19-16.21,35.71,35.71,0,0,1,3.6-16.48A24.72,24.72,0,0,1,41.1,25.65,30.06,30.06,0,0,1,55.77,22Q64.85,22,71,26.62a24.06,24.06,0,0,1,8.62,13l-7.88,1.86q-2.1-6.6-6.11-9.61a16.23,16.23,0,0,0-10.06-3A19.52,19.52,0,0,0,44,32.19a17.62,17.62,0,0,0-6.58,9,36.22,36.22,0,0,0-1.9,11.61,36.81,36.81,0,0,0,2.25,13.46,16.72,16.72,0,0,0,7,8.6A19.62,19.62,0,0,0,55,77.68,17.21,17.21,0,0,0,66.37,73.8Q71,69.93,72.68,62.29Z"/></g></g></svg>