<svg xmlns="http://www.w3.org/2000/svg" viewBox="0 0 107 107"><defs><style>.cls-1{fill:#fff;}</style></defs><title>enter</title><g id="Layer_2" data-name="Layer 2"><g id="Layer_1-2" data-name="Layer 1"><path class="cls-1" d="M95,10a2,2,0,0,1,2,2V95a2,2,0,0,1-2,2H12a2,2,0,0,1-2-2V61H38A22,22,0,0,0,60,39V10H95M95,0H50V39A12,12,0,0,1,38,51H0V95a12,12,0,0,0,12,12H95a12,12,0,0,0,12-12V12A12,12,0,0,0,95,0Z"/><path class="cls-1" d="M84,48.31H79.48a2,2,0,0,0-2,2V72.65H49.56l3-6.09a2,2,0,0,0-2.79-2.62L30.33,75.16a2,2,0,0,0-1,1.73,2,2,0,0,0,1,1.73L49.8,89.88a2,2,0,0,0,1,.27,2,2,0,0,0,1.79-2.89l-3-6.09H84a2,2,0,0,0,2-2V50.31A2,2,0,0,0,84,48.31Z"/></g></g></svg>