<svg xmlns="http://www.w3.org/2000/svg" xmlns:xlink="http://www.w3.org/1999/xlink" viewBox="0 0 95 139"><defs><style>.cls-1{fill:none;}.cls-2{fill:#fff;}.cls-3{clip-path:url(#clip-path);}</style><clipPath id="clip-path"><rect class="cls-1" width="36" height="58"/></clipPath></defs><title>lmb</title><g id="Layer_2" data-name="Layer 2"><g id="Layer_1-2" data-name="Layer 1"><path class="cls-2" d="M47.5,10c9.28,0,18.28,5.68,25.33,16C80.68,37.48,85,52.93,85,69.5s-4.32,32-12.17,43.5c-7,10.32-16,16-25.33,16s-18.28-5.68-25.33-16C14.32,101.52,10,86.07,10,69.5s4.32-32,12.17-43.5c7-10.32,16-16,25.33-16m0-10C21.27,0,0,31.12,0,69.5S21.27,139,47.5,139,95,107.88,95,69.5,73.73,0,47.5,0Z"/><g class="cls-3"><ellipse class="cls-2" cx="47.5" cy="69.5" rx="47.5" ry="69.5"/></g></g></g></svg>