<svg xmlns="http://www.w3.org/2000/svg" viewBox="0 0 107 107"><defs><style>.cls-1{fill:#fff;}</style></defs><title>x</title><g id="Layer_2" data-name="Layer 2"><g id="Layer_1-2" data-name="Layer 1"><path class="cls-1" d="M95,10a2,2,0,0,1,2,2V95a2,2,0,0,1-2,2H12a2,2,0,0,1-2-2V12a2,2,0,0,1,2-2H95M95,0H12A12,12,0,0,0,0,12V95a12,12,0,0,0,12,12H95a12,12,0,0,0,12-12V12A12,12,0,0,0,95,0Z"/><path class="cls-1" d="M26.05,83.49,49.44,52,28.82,23h9.52l11,15.51A86.78,86.78,0,0,1,54.18,46,81.15,81.15,0,0,1,59,39.07L71.13,23h8.7L58.59,51.53l22.89,32h-9.9L56.37,61.92q-1.29-1.85-2.64-4-2,3.3-2.89,4.54L35.66,83.49Z"/></g></g></svg>